<?xml version="1.0" encoding="UTF-8"?>
<svg width="24" height="24" viewBox="0 0 24 24" fill="none" xmlns="http://www.w3.org/2000/svg">
  <path d="M12 2C12.5523 2 13 2.44772 13 3V4H14C15.6569 4 17 5.34315 17 7V8H18C19.6569 8 21 9.34315 21 11V17C21 18.6569 19.6569 20 18 20H6C4.34315 20 3 18.6569 3 17V11C3 9.34315 4.34315 8 6 8H7V7C7 5.34315 8.34315 4 10 4H11V3C11 2.44772 11.4477 2 12 2Z" stroke="currentColor" stroke-width="2" stroke-linecap="round" stroke-linejoin="round"/>
  <path d="M9 13H9.01" stroke="currentColor" stroke-width="2" stroke-linecap="round"/>
  <path d="M15 13H15.01" stroke="currentColor" stroke-width="2" stroke-linecap="round"/>
  <path d="M9 16H15" stroke="currentColor" stroke-width="2" stroke-linecap="round"/>
</svg> 